<?xml version="1.0" encoding="iso-8859-1"?>
<!-- Generator: Adobe Illustrator 19.0.0, SVG Export Plug-In . SVG Version: 6.00 Build 0)  -->
<svg version="1.1" id="Layer_1" xmlns="http://www.w3.org/2000/svg" xmlns:xlink="http://www.w3.org/1999/xlink" x="0px" y="0px"
	 viewBox="0 0 512 512" style="enable-background:new 0 0 512 512;" xml:space="preserve">
<circle style="fill:#91DD5A;" cx="256" cy="256" r="247.916"/>
<path style="fill:#7ED63F;" d="M256,8.084c-10.96,0-21.752,0.72-32.337,2.099C345.304,26.029,439.242,130.04,439.242,256
	s-93.939,229.971-215.579,245.817c10.585,1.379,21.377,2.099,32.337,2.099c136.921,0,247.916-110.996,247.916-247.916
	S392.921,8.084,256,8.084z"/>
<path style="fill:#FFFFFF;" d="M256,429.002c-42.111,0-82.68-15.309-114.262-43.116H82.741l19.904-49.762
	C89.793,311.573,82.998,283.87,82.998,256c0-95.394,77.608-173.002,173.002-173.002S429.002,160.606,429.002,256
	S351.394,429.002,256,429.002z"/>
<path style="fill:#7ED63F;" d="M256,396.665c-34.233,0-67.223-12.448-92.893-35.049l-9.162-8.067h-23.442l7.694-19.235
	l-6.903-13.187c-10.44-19.945-15.959-42.466-15.959-65.127c0-77.563,63.102-140.665,140.665-140.665S396.665,178.437,396.665,256
	S333.563,396.665,256,396.665z"/>
<path style="fill:#FFFFFF;" d="M300.006,355.113c-5.092,0-9.975-1.578-14.124-4.563c-48.016-34.55-89.881-76.415-124.433-124.434
	c-6.975-9.694-5.868-22.897,2.629-31.395l34.752-34.751c6.916-6.916,18.128-6.916,25.043,0l21.45,21.45
	c6.916,6.916,6.916,18.128,0,25.043l-5.9,5.9c-2.886,2.886-3.747,7.223-2.213,11.005c9.858,24.309,27.113,41.563,51.421,51.421
	c3.782,1.534,8.119,0.673,11.005-2.213l5.9-5.9c6.916-6.916,18.128-6.916,25.044,0l21.45,21.45c6.916,6.916,6.916,18.128,0,25.044
	l-34.751,34.751C312.641,352.559,306.507,355.113,300.006,355.113z"/>
<path d="M437.019,74.981C388.667,26.628,324.379,0,256,0S123.333,26.628,74.982,74.981C26.628,123.333,0,187.62,0,256
	s26.628,132.667,74.982,181.019C123.333,485.372,187.62,512,256,512s132.667-26.628,181.019-74.981
	C485.372,388.667,512,324.379,512,256S485.372,123.333,437.019,74.981z M256,495.832C123.756,495.832,16.168,388.244,16.168,256
	S123.756,16.168,256,16.168S495.832,123.756,495.832,256S388.244,495.832,256,495.832z"/>
<path d="M396.103,158.119c-0.039,0.039-0.078,0.078-0.116,0.116c-2.667,2.667-3.083,6.813-1.064,9.999
	c16.112,25.41,25.457,55.516,25.457,87.766c0,90.639-73.74,164.379-164.379,164.379c-40.05,0-78.635-14.575-108.654-41.044
	c-1.497-1.32-3.409-2.072-5.406-2.072H95.478l15.266-38.167c0.877-2.197,0.75-4.667-0.349-6.762
	C98.112,308.957,91.621,282.561,91.621,256c0-90.639,73.74-164.379,164.379-164.379c44.86,0,85.573,18.069,115.261,47.303
	c3.128,3.081,8.155,3.054,11.261-0.051l0.103-0.103c3.156-3.156,3.11-8.272-0.071-11.402C349.949,95.283,305.25,75.453,256,75.453
	c-99.553,0-180.547,80.993-180.547,180.547c0,27.91,6.53,55.659,18.914,80.505l-18.336,45.84c-1.305,3.265-0.377,7.1,2.557,9.402
	c1.459,1.146,3.309,1.685,5.165,1.685h55.172c32.638,27.826,74.09,43.116,117.076,43.116c99.553,0,180.547-80.993,180.547-180.547
	c0-35.492-10.296-68.622-28.057-96.566C405.756,155.13,399.708,154.512,396.103,158.119z"/>
<path d="M369.373,294.798l-45.598-45.597c-3.158-3.157-8.276-3.157-11.433,0l-19.245,19.246
	c-24.04-9.23-40.312-25.502-49.542-49.542l19.246-19.246c3.157-3.157,3.157-8.276,0-11.432l-45.731-45.731
	c-3.158-3.157-8.276-3.157-11.433,0l-46.894,46.891c-11.125,11.127-12.563,28.427-3.418,41.138
	c19.388,26.944,41.063,51.961,64.798,74.881c3.149,3.041,8.15,3.015,11.245-0.081c0.038-0.038,0.077-0.077,0.114-0.114
	c3.157-3.157,3.125-8.292-0.087-11.394c-23.056-22.262-44.113-46.562-62.945-72.734c-4.494-6.245-3.767-14.767,1.728-20.261
	l41.176-41.176l34.298,34.299l-17.149,17.149c-2.154,2.154-2.928,5.346-1.965,8.236c10.959,32.91,33.198,55.157,66.1,66.125
	c2.904,0.966,6.108,0.212,8.274-1.953l17.148-17.149l34.299,34.299l-41.176,41.176c-5.495,5.495-14.015,6.223-20.261,1.728
	c-10.574-7.609-20.836-15.589-30.788-23.91c-3.168-2.648-7.841-2.418-10.761,0.502l-0.109,0.109
	c-3.325,3.325-3.084,8.791,0.524,11.808c10.244,8.565,20.806,16.782,31.69,24.614c5.596,4.027,12.08,6.001,18.538,6.001
	c8.208,0,16.372-3.193,22.6-9.421l46.892-46.892c2.24-2.24,3.03-5.661,1.763-8.802C370.848,296.517,370.17,295.594,369.373,294.798z
	"/>
<g>
</g>
<g>
</g>
<g>
</g>
<g>
</g>
<g>
</g>
<g>
</g>
<g>
</g>
<g>
</g>
<g>
</g>
<g>
</g>
<g>
</g>
<g>
</g>
<g>
</g>
<g>
</g>
<g>
</g>
</svg>
