<svg id="Capa_1" enable-background="new 0 0 511.611 511.611" height="512" viewBox="0 0 511.611 511.611" width="512" xmlns="http://www.w3.org/2000/svg"><g><g><g><path d="m123.48 438.607h-79.594v-180.455c0-5.456 4.423-9.879 9.879-9.879h59.836c5.456 0 9.879 4.423 9.879 9.879z" fill="#fbe88c"/></g><g><path d="m238.41 438.607h-79.594v-204.248c0-5.456 4.423-9.879 9.879-9.879h59.836c5.456 0 9.879 4.423 9.879 9.879z" fill="#b3e5ee"/></g><g><path d="m353.34 438.607h-79.594v-233.44c0-5.456 4.423-9.879 9.879-9.879h63.868c3.229 0 5.847 2.618 5.847 5.847z" fill="#fbe88c"/></g><path d="m458.391 161.489c5.456 0 9.879 4.423 9.879 9.879v263.24h-79.594v-253.354c0-10.916 8.849-19.765 19.765-19.765z" fill="#b3e5ee"/><path d="m69.027 283.298c0-7.229 5.86-13.089 13.089-13.089h41.365v-12.058c0-5.456-4.423-9.879-9.879-9.879h-59.837c-5.456 0-9.879 4.423-9.879 9.879v180.456h25.14v-155.309z" fill="#fbe372"/><path d="m183.957 256.296c0-5.456 4.423-9.879 9.879-9.879h44.574v-12.058c0-5.456-4.423-9.879-9.879-9.879h-59.836c-5.456 0-9.879 4.423-9.879 9.879v204.248h25.14v-182.311z" fill="#86d7e5"/><path d="m298.887 227.104c0-5.456 4.423-9.879 9.879-9.879h44.574v-16.09c0-3.229-2.618-5.847-5.846-5.847h-63.868c-5.456 0-9.879 4.423-9.879 9.879v233.44h25.14z" fill="#fbe372"/><path d="m413.817 195.546c0-6.694 5.427-12.121 12.121-12.121h42.332v-12.058c0-5.456-4.423-9.879-9.879-9.879h-49.949c-10.916 0-19.765 8.849-19.765 19.765v253.353h25.14z" fill="#86d7e5"/><g><path d="m497.724 468.709h-484.164c-2.971 0-5.38-2.409-5.38-5.38v-20.552c0-13.348 10.821-24.17 24.17-24.17h446.584c13.349 0 24.17 10.821 24.17 24.17v20.552c-.001 2.971-2.409 5.38-5.38 5.38z" fill="#a59ca6"/><path d="m496.931 43.186-50.793 17.091c-4.169 1.403-5.039 6.915-1.504 9.533l14.079 10.43c-95.988 135.216-251.639 215.745-417.733 215.745h-18.48c-8.284 0-15 6.716-15 15s6.716 15 15 15h18.48c175.618 0 340.209-85.044 441.846-227.881l11.047 8.184c3.535 2.618 8.554.18 8.682-4.216l1.553-53.569c.11-3.787-3.586-6.526-7.177-5.317z" fill="#e79098"/></g></g><path d="m478.934 411.108h-3.164v-239.74c0-9.583-7.796-17.379-17.379-17.379h-11.093c13.18-14.438 25.602-29.569 37.163-45.34l4.947 3.665c3.889 2.881 9.007 3.358 13.36 1.243 4.353-2.113 7.144-6.432 7.284-11.268l1.553-53.57c.122-4.229-1.835-8.258-5.235-10.776s-7.823-3.214-11.832-1.865l-50.792 17.092c-4.585 1.542-7.903 5.469-8.658 10.248s1.191 9.538 5.08 12.42l8.13 6.022c-7.34 10.022-15.119 19.862-23.186 29.326-2.688 3.152-2.31 7.886.842 10.573 3.151 2.686 7.885 2.31 10.573-.843 9.947-11.669 19.469-23.894 28.301-36.334 2.363-3.33 1.629-7.938-1.651-10.368l-10.914-8.085 44.262-14.894-1.354 46.681-7.882-5.839c-1.618-1.199-3.651-1.701-5.64-1.381-1.989.315-3.768 1.418-4.936 3.059-49.2 69.144-115.076 126.264-190.508 165.188-75.489 38.953-160.287 59.542-245.227 59.542h-18.478c-4.136 0-7.5-3.364-7.5-7.5s3.364-7.5 7.5-7.5h18.48c70.416 0 138.957-13.992 203.719-41.589 64.271-27.387 121.461-66.722 169.981-116.91 2.879-2.979 2.799-7.726-.179-10.605-2.979-2.879-7.727-2.798-10.605.18-18.8 19.447-38.946 37.21-60.329 53.234-.036 0-.07-.005-.106-.005h-59.836c-9.583 0-17.379 7.796-17.379 17.378v30.269c-6.692 3.331-13.471 6.521-20.336 9.569v-10.646c0-9.583-7.796-17.379-17.378-17.379h-59.836c-9.583 0-17.378 7.796-17.378 17.379v41.966c-6.75 1.513-13.529 2.889-20.337 4.121v-22.295c0-9.583-7.796-17.379-17.378-17.379h-59.838c-9.583 0-17.378 7.796-17.378 17.379v30.333h-13.887c-12.407 0-22.5 10.094-22.5 22.5s10.093 22.5 22.5 22.5h13.886v77.623h-4.036c-17.463 0-31.67 14.207-31.67 31.669v20.552c0 7.102 5.778 12.88 12.88 12.88h484.164c7.102 0 12.88-5.778 12.88-12.88v-20.552c0-17.462-14.208-31.669-31.67-31.669zm-197.688-205.941c0-1.312 1.067-2.378 2.379-2.378h38.817c-13.302 8.93-27.044 17.219-41.196 24.863zm-114.93 29.193c0-1.312 1.067-2.379 2.378-2.379h59.836c1.312 0 2.378 1.067 2.378 2.379v17.02c-21.152 8.6-42.705 15.726-64.593 21.348v-38.368zm-112.551 21.413h59.836c1.312 0 2.378 1.067 2.378 2.379v24.775c-21.296 3.187-42.848 5.003-64.593 5.443v-30.219c0-1.311 1.067-2.378 2.379-2.378zm379.335-86.784h25.291c1.312 0 2.379 1.067 2.379 2.379v239.74h-64.594v-207.873c12.816-10.852 25.147-22.276 36.924-34.246zm-140.015 103.284c18.157-9.369 35.768-19.773 52.754-31.113v79.87c0 4.143 3.358 7.5 7.5 7.5s7.5-3.357 7.5-7.5v-90.232c6.897-4.941 13.674-10.048 20.336-15.301v195.611h-20.335v-58.096c0-4.143-3.358-7.5-7.5-7.5s-7.5 3.357-7.5 7.5v58.096h-64.594v-132.924c3.968-1.927 7.919-3.888 11.839-5.911zm-126.769 46.647c21.897-5.13 43.481-11.589 64.593-19.343v111.531h-64.593zm79.594-25.103c6.836-2.74 13.616-5.617 20.336-8.631v125.922h-20.336zm-194.524 39.556c21.611-.416 43.189-2.12 64.593-5.084v24.859c0 4.143 3.358 7.5 7.5 7.5s7.5-3.357 7.5-7.5v-27.14c6.803-1.133 13.581-2.405 20.337-3.792v88.892h-20.337v-25.977c0-4.143-3.358-7.5-7.5-7.5s-7.5 3.357-7.5 7.5v25.977h-64.593zm444.218 127.836h-479.924v-18.432c0-9.191 7.478-16.669 16.67-16.669h446.584c9.192 0 16.67 7.478 16.67 16.669z"/></g></svg>