<svg id="Capa_1" enable-background="new 0 0 511.453 511.453" height="512" viewBox="0 0 511.453 511.453" width="512" xmlns="http://www.w3.org/2000/svg"><g><g><g><path d="m325.181 298.311 43.341 29.807c18.349 12.619 29.311 33.462 29.311 55.732v30.755c0 6.512-5.279 11.791-11.791 11.791h-245.111c-6.512 0-11.791-5.279-11.791-11.791v-30.755c0-22.27 10.962-43.113 29.311-55.732l43.341-29.807 18.227-12.882 43.967 17.679 43.893-17.679z" fill="#e79098"/><path d="m226.362 205.843h74.249v104.784h-74.249z" fill="#ffd1c2"/><path d="m315.014 44.916 5.41.805c27.368 4.07 46.333 29.45 42.478 56.85l-6.344 45.1-4.513 20.083h-66.748l-2.567-125.72h19.804z" fill="#a59ca6"/><path d="m327.169 141.315 7.351-38.777c5.448-17.596 5.009-36.031-1.094-53.058-4.057-1.797-8.401-3.074-13.001-3.759l-5.41-.805-12.48-2.882h-19.805l2.567 125.719h7.449l1.319-.305z" fill="#8f8390"/><path d="m313.475 133.014-26.064 20.577-103.914 24.007-11.386-32.031c-13.504-32.755-10.425-70.007 8.276-100.1 18.945-30.486 55.786-44.743 90.317-34.952l2.289.649c37.654 10.677 58.948 50.452 46.954 87.707z" fill="#a59ca6"/><path d="m185.288 188.548c-11.869 0-21.491-9.622-21.491-21.491 0-11.869 9.622-21.491 21.491-21.491h45.197v42.982z" fill="#ffd1c2"/><g><path d="m341.686 188.548c11.869 0 21.491-9.622 21.491-21.491 0-11.869-9.622-21.491-21.491-21.491h-43.127v42.982z" fill="#ffd1c2"/><path d="m263.487 254.162c38.421 0 69.567-31.146 69.567-69.567v-48.478c0-17.338-7.564-33.813-20.712-45.115l-9.535-8.196c-2.215-1.904-5.474-1.954-7.746-.119l-10.178 8.221h-47.474c-24.017 0-43.487 19.47-43.487 43.487v50.199c-.002 38.422 31.144 69.568 69.565 69.568z" fill="#ffe0d1"/><path d="m233.627 112.829h60.711c5.056 0 9.959-1.733 13.892-4.91l8.613-6.956c1.025-.828 2.208-1.401 3.422-1.698-2.35-2.978-4.999-5.749-7.923-8.262l-9.535-8.196c-2.215-1.904-5.474-1.954-7.746-.119l-10.178 8.221h-47.474c-21.285 0-39.001 15.302-42.755 35.499 10.704-8.49 24.248-13.579 38.973-13.579z" fill="#ffd1c2"/><path d="m270.987 426.396v-108.587c0-4.143-3.358-7.5-7.5-7.5s-7.5 3.357-7.5 7.5v108.587z" fill="#e17983"/><path d="m325.181 298.311-17.301-12.882-43.893 17.679-14.379-5.782-.049.025.041-.029-29.58-11.894-18.227 12.882-43.341 29.807c-18.349 12.62-29.311 33.462-29.311 55.732v30.755c0 6.512 5.279 11.791 11.791 11.791h18.534c-.005-.137-.021-.271-.021-.409v-30.755c0-22.27 10.962-43.112 29.311-55.732l10.957-7.535c3.142-2.161 7.43-1.455 9.714 1.599 3.622 4.843 8.894 8.307 14.857 9.314 3.554.6 7.157.365 10.558-.671l28.644-8.717 28.646 8.718c2.169.66 4.424.996 6.691.996 7.208 0 14.091-3.446 18.41-9.221l20.299-27.14c-.003-.016-.004-.024-.007-.039z" fill="#e17983"/><path d="m226.362 274.217 37.124 18.203v25.389l-33.011 10.046c-3.22.98-6.708-.163-8.724-2.858l-19.959-26.686c-2.314-3.094-1.821-7.454 1.124-9.954l15.496-13.15c2.218-1.881 5.34-2.27 7.95-.99z" fill="#f9f7f7"/><path d="m300.611 274.217-37.124 18.203v25.389l33.011 10.046c3.22.98 6.708-.163 8.724-2.858l19.959-26.686c2.314-3.094 1.821-7.454-1.124-9.954l-15.496-13.15c-2.218-1.881-5.339-2.27-7.95-.99z" fill="#f9f7f7"/><path d="m374.704 441.653 8.434 17.089c.351.711 1.029 1.204 1.814 1.318l18.859 2.74c1.976.287 2.765 2.715 1.335 4.109l-13.646 13.302c-.568.553-.827 1.351-.693 2.132l3.221 18.782c.338 1.968-1.728 3.469-3.495 2.54l-16.868-8.868c-.702-.369-1.54-.369-2.242 0l-16.868 8.868c-1.767.929-3.833-.572-3.495-2.54l3.221-18.782c.134-.781-.125-1.579-.693-2.132l-13.646-13.302c-1.43-1.394-.641-3.822 1.335-4.109l18.859-2.74c.785-.114 1.463-.607 1.814-1.318l8.434-17.089c.883-1.791 3.436-1.791 4.32 0z" fill="#fbe88c"/><path d="m152.27 441.653-8.434 17.089c-.351.711-1.029 1.204-1.814 1.318l-18.859 2.74c-1.976.287-2.765 2.715-1.335 4.109l13.646 13.302c.568.553.827 1.351.693 2.132l-3.221 18.782c-.338 1.968 1.728 3.469 3.495 2.54l16.868-8.868c.702-.369 1.54-.369 2.242 0l16.868 8.868c1.767.929 3.833-.572 3.495-2.54l-3.221-18.782c-.134-.781.125-1.579.693-2.132l13.646-13.302c1.43-1.394.641-3.822-1.335-4.109l-18.859-2.74c-.785-.114-1.463-.607-1.814-1.318l-8.434-17.089c-.884-1.791-3.437-1.791-4.32 0z" fill="#fbe88c"/><g fill="#e17983"><path d="m186.358 426.396v-42.351c0-4.143-3.358-7.5-7.5-7.5s-7.5 3.357-7.5 7.5v42.351z"/><path d="m355.615 384.045c0-4.143-3.358-7.5-7.5-7.5s-7.5 3.357-7.5 7.5c0 0-.066 39.338-.128 42.351h15c.039-1.822.128-42.351.128-42.351z"/></g></g><path d="m267.754 394.828 14.707 29.8c.612 1.24 1.795 2.099 3.163 2.298l32.886 4.779c3.446.501 4.821 4.735 2.328 7.165l-23.797 23.196c-.99.965-1.442 2.356-1.208 3.718l5.618 32.753c.589 3.432-3.013 6.049-6.095 4.428l-29.414-15.464c-1.224-.643-2.686-.643-3.91 0l-29.414 15.464c-3.082 1.62-6.684-.997-6.095-4.428l5.618-32.753c.234-1.363-.218-2.753-1.208-3.718l-23.797-23.196c-2.493-2.43-1.117-6.665 2.328-7.165l32.886-4.779c1.368-.199 2.551-1.058 3.163-2.298l14.707-29.8c1.541-3.123 5.993-3.123 7.534 0z" fill="#fbe88c"/><path d="m301.451 498.538-.858-5-33.325-17.52c-1.439-.756-3.158-.756-4.596 0l-17.91 9.416c-1.754.922-3.804-.567-3.469-2.52l4.197-24.474c.234-1.363-.218-2.753-1.208-3.718l-11.615-11.322c-2.177-2.122-.976-5.82 2.033-6.258l18.96-2.755c1.368-.199 2.551-1.058 3.163-2.298l14.66-29.704-3.73-7.557c-1.541-3.122-5.993-3.122-7.534 0l-14.707 29.8c-.612 1.24-1.795 2.099-3.163 2.298l-32.886 4.779c-3.446.501-4.821 4.735-2.328 7.165l23.797 23.196c.99.965 1.442 2.355 1.208 3.718l-5.618 32.753c-.589 3.432 3.014 6.049 6.095 4.429l29.414-15.464c1.224-.643 2.686-.643 3.91 0l29.414 15.464c3.083 1.62 6.685-.997 6.096-4.428z" fill="#fbe372"/></g><g fill="#fbe88c"><path d="m381.678 312.332c-3.969 10.111-11.355 17.322-21.791 21.941-2.238.99-2.157 4.172.116 5.077 10.024 3.992 17.442 11.047 21.59 21.917.861 2.255 3.927 2.447 5.046.308 5.078-9.712 12.913-16.976 23.097-22.156 2.017-1.026 2.041-3.862.041-4.92-10.224-5.41-17.958-12.854-23.119-22.402-1.11-2.054-4.128-1.938-4.98.235z"/><path d="m122.326 221.625c-3.75 9.554-10.73 16.369-20.592 20.733-2.114.936-2.038 3.942.11 4.798 9.472 3.773 16.482 10.439 20.402 20.711.813 2.131 3.711 2.312 4.768.291 4.798-9.177 12.202-16.042 21.826-20.937 1.906-.97 1.929-3.649.039-4.65-9.661-5.112-16.969-12.147-21.847-21.169-1.049-1.94-3.9-1.83-4.706.223z"/></g></g><g><path d="m405.333 426.396v-36.303c0-4.143-3.358-7.5-7.5-7.5s-7.5 3.357-7.5 7.5v36.303c0 4.143 3.358 7.5 7.5 7.5s7.5-3.358 7.5-7.5z"/><path d="m413.284 327.87c-9.024-4.775-15.576-11.102-20.029-19.341-1.9-3.513-5.704-5.623-9.688-5.383-4.007.244-7.407 2.714-8.872 6.445-3.172 8.083-9.01 13.913-17.845 17.823-3.782 1.674-6.175 5.424-6.098 9.555.078 4.144 2.619 7.812 6.473 9.348 8.438 3.361 14.116 9.126 17.358 17.624 1.443 3.782 4.976 6.379 9.001 6.615.2.012.399.018.598.018 3.794 0 7.32-2.121 9.101-5.524 4.241-8.112 10.734-14.31 19.851-18.946 3.44-1.75 5.596-5.228 5.626-9.075.032-3.848-2.068-7.358-5.476-9.159zm-28.579 22.717c-3.454-5.683-7.985-10.337-13.561-13.927 5.592-3.702 10.122-8.289 13.55-13.723 3.976 5.346 8.838 10.005 14.549 13.94-5.753 3.851-10.613 8.433-14.538 13.71z"/><path d="m124.107 277.057c.197.012.393.017.588.017 3.738 0 7.212-2.089 8.965-5.44 3.967-7.588 10.044-13.387 18.58-17.728 3.388-1.723 5.512-5.147 5.542-8.938.031-3.789-2.036-7.248-5.397-9.026-8.452-4.472-14.587-10.395-18.757-18.107-1.871-3.46-5.605-5.538-9.542-5.302-3.948.24-7.298 2.673-8.742 6.351v.001c-2.956 7.532-8.401 12.967-16.645 16.615-3.727 1.648-6.084 5.345-6.008 9.415.077 4.082 2.58 7.697 6.377 9.209 7.859 3.13 13.148 8.5 16.169 16.418 1.424 3.725 4.905 6.283 8.87 6.515zm1.097-44.686c3.6 4.735 7.941 8.894 12.992 12.445-5.083 3.473-9.418 7.56-12.975 12.228-3.144-5.014-7.186-9.168-12.101-12.434 4.925-3.352 8.962-7.442 12.084-12.239z"/><path d="m319.589 424.283-31.169-4.529-13.94-28.245c-.839-1.7-2.045-3.125-3.493-4.207v-59.37l23.326 7.099c1.479.45 2.99.668 4.487.668 4.801-.001 9.458-2.238 12.428-6.208l15.642-20.915 11.061 7.607c1.298.893 2.778 1.321 4.243 1.321 2.386 0 4.732-1.137 6.187-3.251 2.347-3.413 1.483-8.082-1.93-10.43l-12.375-8.511c.429-4.664-1.342-9.445-5.146-12.674l-15.496-13.148c-1.582-1.343-3.392-2.302-5.302-2.878v-19.209c1.399-.994 2.776-2.021 4.109-3.111 3.208-2.621 3.683-7.347 1.061-10.554-2.62-3.207-7.345-3.681-10.553-1.062-11.036 9.02-24.972 13.986-39.242 13.986-34.224 0-62.067-27.844-62.067-62.067v-50.199c0-19.843 16.144-35.986 35.988-35.986h47.474c1.715 0 3.378-.588 4.713-1.666l9.239-7.463 8.62 7.41c11.503 9.888 18.101 24.258 18.101 39.428v48.477c0 8.815-1.827 17.355-5.431 25.381-1.696 3.779-.008 8.218 3.771 9.914 3.778 1.697 8.217.01 9.914-3.77 2.896-6.451 4.853-13.17 5.885-20.072h1.994c15.985 0 28.991-13.006 28.991-28.991 0-6.996-2.491-13.42-6.632-18.434l6.284-44.674c4.411-31.356-17.481-60.656-48.801-65.312l-1.594-.237c-10.046-16.879-25.86-29.053-44.896-34.451l-2.288-.648c-26.343-7.47-55.128-2.083-76.999 14.41-3.307 2.494-3.966 7.197-1.472 10.504 2.493 3.308 7.195 3.966 10.504 1.473 18.143-13.683 42.022-18.151 63.876-11.955l2.288.648c16.236 4.604 29.564 15.333 37.529 30.212 5.879 10.983 8.245 23.145 7.006 35.222l-7.788-6.695c-4.961-4.263-12.256-4.375-17.347-.264l-8.116 6.556h-44.823c-28.115 0-50.988 22.872-50.988 50.986v3.671h-1.132c-2.645 0-5.205.363-7.641 1.029-10.562-28.701-7.714-61.164 7.868-87.603 2.103-3.568.915-8.166-2.653-10.269-3.569-2.104-8.167-.915-10.27 2.653-18.322 31.087-21.282 69.441-8.044 102.953-5.099 5.228-8.25 12.365-8.25 20.227 0 15.985 13.005 28.99 28.991 28.99h1.987c3.16 21.114 14.923 39.439 31.587 51.32v19.242c-1.91.577-3.72 1.535-5.302 2.878l-15.497 13.149c-3.804 3.229-5.575 8.01-5.146 12.674l-38.716 26.626c-20.389 14.021-32.561 37.166-32.561 61.912v42.546c0 4.143 3.358 7.5 7.5 7.5s7.5-3.357 7.5-7.5v-42.547c0-19.806 9.742-38.33 26.061-49.553l37.402-25.722 15.643 20.915c2.97 3.971 7.626 6.208 12.427 6.208 1.497 0 3.008-.218 4.486-.668l23.328-7.099v60.208c-1.005.945-1.855 2.078-2.493 3.37l-13.94 28.245-31.17 4.529c-4.44.646-8.06 3.697-9.446 7.965-1.386 4.267-.251 8.862 2.961 11.993l22.555 21.985-5.325 31.043c-.759 4.422 1.025 8.808 4.654 11.444s8.351 2.98 12.323.892l27.879-14.657 27.879 14.657c1.728.908 3.596 1.356 5.456 1.356 2.416 0 4.816-.758 6.867-2.248 3.629-2.637 5.413-7.022 4.654-11.443l-5.325-31.044 22.555-21.985c3.213-3.131 4.348-7.727 2.962-11.993-1.387-4.268-5.007-7.32-9.447-7.965zm22.097-243.235h-1.132v-27.981h1.132c7.714 0 13.991 6.276 13.991 13.991 0 7.714-6.277 13.99-13.991 13.99zm13.79-79.189-5.273 37.486c-2.694-.83-5.554-1.278-8.516-1.278h-1.132v-1.948c0-14.03-4.4-27.517-12.354-38.73 3.722-13.907 3.459-28.276-.661-41.819 18.673 6.741 30.801 25.918 27.936 46.289zm-184.179 65.198c0-7.714 6.276-13.99 13.991-13.99h1.132v27.981h-1.132c-7.714 0-13.991-6.276-13.991-13.991zm147.772 126.903-19.853 26.545c-.123.165-.339.232-.535.175l-27.695-8.429v-15.155l32.815-16.09zm-55.582-32.297c10.217 0 20.293-2.062 29.625-5.946v13.825l-29.625 14.525-29.625-14.525v-13.809c9.126 3.814 19.132 5.93 29.625 5.93zm-35.197 59.017c-.195.062-.41-.011-.533-.175l-19.853-26.545 15.268-12.954 32.815 16.09v15.155zm63.518 136.014c-2.758 2.688-4.017 6.56-3.367 10.358l4.488 26.165-23.497-12.354c-1.705-.896-3.575-1.344-5.445-1.344s-3.74.447-5.445 1.344l-23.497 12.354 4.488-26.167c.65-3.797-.609-7.669-3.366-10.355l-19.01-18.529 26.273-3.817c3.811-.555 7.103-2.947 8.808-6.401l11.749-23.806 11.749 23.807c1.705 3.453 4.997 5.846 8.81 6.4l26.271 3.817z"/><path d="m404.889 455.378-16.21-2.356-7.249-14.688v-.001c-1.682-3.406-5.087-5.522-8.887-5.522-3.799.001-7.203 2.117-8.884 5.523l-7.25 14.688-16.21 2.356c-3.76.546-6.825 3.13-7.999 6.743s-.213 7.506 2.507 10.157l11.73 11.435-2.769 16.143c-.644 3.746.867 7.46 3.942 9.693 1.737 1.262 3.769 1.903 5.815 1.903 1.575 0 3.158-.38 4.62-1.149l14.499-7.622 14.497 7.621c3.363 1.769 7.361 1.479 10.436-.752 3.074-2.233 4.585-5.947 3.943-9.692l-2.769-16.145 11.729-11.434c2.721-2.652 3.682-6.544 2.508-10.157-1.174-3.614-4.24-6.198-7.999-6.744zm-18.626 19.462c-2.334 2.276-3.399 5.554-2.849 8.771l1.478 8.615-7.735-4.066c-1.445-.76-3.029-1.14-4.614-1.14-1.583 0-3.167.38-4.61 1.139l-7.737 4.067 1.478-8.614c.552-3.215-.513-6.494-2.85-8.772l-6.259-6.101 8.643-1.257c3.23-.466 6.021-2.492 7.468-5.421l3.869-7.839 3.869 7.841c1.445 2.927 4.237 4.953 7.46 5.418l8.65 1.258z"/><path d="m186.775 455.378-16.21-2.356-7.25-14.688c-1.681-3.407-5.085-5.523-8.884-5.524h-.001c-3.799 0-7.204 2.116-8.885 5.522v.001l-7.249 14.688-16.209 2.356c-3.76.546-6.826 3.13-8 6.744-1.174 3.613-.213 7.505 2.508 10.157l11.729 11.434-2.769 16.145c-.642 3.745.869 7.459 3.943 9.692 1.737 1.261 3.769 1.902 5.814 1.902 1.575 0 3.158-.381 4.62-1.149l14.499-7.622 14.497 7.621c3.363 1.769 7.362 1.48 10.437-.753s4.585-5.947 3.942-9.691l-2.769-16.145 11.729-11.434c2.721-2.652 3.682-6.545 2.508-10.158-1.175-3.612-4.24-6.196-8-6.742zm-18.626 19.462c-2.336 2.277-3.401 5.557-2.849 8.771l1.478 8.615-7.735-4.066c-2.889-1.52-6.337-1.519-9.224-.001l-7.737 4.067 1.478-8.618c.55-3.214-.516-6.491-2.851-8.769l-6.259-6.101 8.644-1.257c3.23-.466 6.021-2.492 7.468-5.421l3.868-7.839 3.87 7.841c1.445 2.927 4.237 4.953 7.46 5.418l8.65 1.258z"/><path d="m186.358 420.769v-36.724c0-4.143-3.358-7.5-7.5-7.5s-7.5 3.357-7.5 7.5v36.724c0 4.143 3.358 7.5 7.5 7.5s7.5-3.357 7.5-7.5z"/><path d="m340.615 384.045v36.724c0 4.143 3.358 7.5 7.5 7.5s7.5-3.357 7.5-7.5v-36.724c0-4.143-3.358-7.5-7.5-7.5s-7.5 3.358-7.5 7.5z"/></g></g></svg>