<svg id="Capa_1" enable-background="new 0 0 512.512 512.512" height="512" viewBox="0 0 512.512 512.512" width="512" xmlns="http://www.w3.org/2000/svg"><g><path d="m386.68 504.299v-327.231c0-3.901-3.162-7.063-7.063-7.063h-83.637c-5.332 0-9.655 4.323-9.655 9.655v68.636 256.003z" fill="#fbe88c"/><path d="m313.415 272.942v-59.566c0-10.342 8.384-18.725 18.725-18.725h54.54v-17.582c0-3.901-3.162-7.063-7.063-7.063h-83.637c-5.332 0-9.655 4.323-9.655 9.655v68.636 256.003h27.09z" fill="#fbe372"/><path d="m487.035 504.299h-100.355v-371.609c0-3.901 3.162-7.063 7.063-7.063h86.228c3.901 0 7.063 3.162 7.063 7.063v371.609z" fill="#e79098"/><path d="m415.902 161.198c0-7.391 5.991-13.382 13.382-13.382h57.751v-15.126c0-3.901-3.162-7.063-7.063-7.063h-86.229c-3.901 0-7.063 3.162-7.063 7.063v371.608h29.222z" fill="#e17983"/><path d="m296.275 504.299v-248.94c0-3.901-3.162-7.063-7.063-7.063h-86.228c-3.901 0-7.063 3.162-7.063 7.063v248.94z" fill="#e79098"/><path d="m223.566 281.233c0-6.104 4.948-11.051 11.051-11.051h61.658v-14.823c0-3.901-3.162-7.063-7.063-7.063h-86.229c-3.901 0-7.063 3.162-7.063 7.063v248.939h27.646z" fill="#e17983"/><circle cx="256.813" cy="111.804" fill="#b3e5ee" r="103.702"/><path d="m299.622 202.462c-57.273 0-103.702-46.429-103.702-103.702 0-38.758 21.265-72.544 52.761-90.342-53.472 4.148-95.57 48.85-95.57 103.386 0 57.273 46.429 103.702 103.702 103.702 18.515 0 35.89-4.848 50.936-13.35-2.683.208-5.39.306-8.127.306z" fill="#86d7e5"/><g><path d="m202.062 177.869c8.427 0 15.259 6.832 15.259 15.259 0 8.427-6.832 15.259-15.259 15.259h-55.204c-1.912 0-3.732.818-5.002 2.248l-15.753 17.744c-2.321 2.614-.465 6.744 3.031 6.744h17.563c9.336 0 15.847 9.259 12.689 18.045l-18.693 52c-.534 1.484-1.941 2.474-3.519 2.474h-18.494c-2.522 0-4.321-2.446-3.569-4.854l9.967-31.905c1.126-3.604-1.567-7.267-5.343-7.267h-15.128c-2.129 0-4.073 1.208-5.017 3.116l-45.997 92.984c-.63 1.275-1.929 2.081-3.351 2.081h-21.235c-2.684 0-4.494-2.745-3.437-5.212l40.746-95.079v-23.824c0-13.583 5.218-26.646 14.577-36.491l27.272-28.688c4.29-4.513 10.243-7.067 16.47-7.067h9.42 15.525l10.313 12.708z" fill="#ede2dd"/><g><path d="m210.071 504.146v-189.44c0-3.901-3.162-7.063-7.063-7.063h-86.228c-3.901 0-7.063 3.162-7.063 7.063v189.44z" fill="#fbe88c"/><path d="m141.421 336.078c0-3.901 3.162-7.063 7.063-7.063h61.587v-14.309c0-3.901-3.162-7.063-7.063-7.063h-86.228c-3.901 0-7.063 3.162-7.063 7.063v189.44h31.705v-168.068z" fill="#fbe372"/><path d="m132.362 504.147h-100.355v-135.286c0-3.901 3.162-7.063 7.063-7.063h86.228c3.901 0 7.063 3.162 7.063 7.063v135.286z" fill="#e79098"/><path d="m55.946 390.887c0-3.901 3.162-7.063 7.063-7.063h69.353v-14.963c0-3.901-3.162-7.063-7.063-7.063h-86.229c-3.901 0-7.063 3.162-7.063 7.063v135.286h23.938v-113.26z" fill="#e17983"/></g></g><circle cx="152.894" cy="165.436" fill="#ede2dd" r="18.838"/></g><path d="m505.012 497.49h-10.229v-288.449c0-4.143-3.357-7.5-7.5-7.5s-7.5 3.357-7.5 7.5v288.449h-85.355v-363.672h85.355v43.261c0 4.143 3.357 7.5 7.5 7.5s7.5-3.357 7.5-7.5v-43.697c0-8.03-6.533-14.563-14.563-14.563h-86.229c-8.03 0-14.563 6.533-14.563 14.563v29.814h-23.048c.809-1.57 1.587-3.162 2.327-4.779 12.432-27.15 13.546-57.517 3.137-85.506-10.407-27.988-31.092-50.249-58.243-62.681-27.15-12.432-57.518-13.546-85.507-3.138-22.764 8.465-41.744 23.692-54.89 44.035-12.704 19.66-19.03 43.299-17.813 66.561.209 3.984 3.5 7.108 7.49 7.108.139 0 .276-.004.421-.01 4.068-.085 7.34-3.409 7.34-7.498 0-.792-.123-1.556-.351-2.273-.626-19.522 4.851-39.248 15.512-55.747 11.378-17.606 27.81-30.787 47.52-38.117 24.232-9.01 50.525-8.047 74.034 2.718 23.508 10.764 41.417 30.037 50.429 54.271s8.047 50.525-2.717 74.033c-10.763 23.508-30.037 41.417-54.271 50.429-15.165 5.639-31.593 7.404-47.5 5.104-4.099-.595-7.903 2.25-8.496 6.35s2.25 7.903 6.35 8.496c5.241.758 10.526 1.134 15.815 1.134 7.413 0 14.823-.767 22.106-2.232v20.033h-75.842c-8.03 0-14.563 6.533-14.563 14.563v44.783h-37.95l15.974-44.437c2.309-6.422 1.343-13.588-2.582-19.169-3.925-5.582-10.342-8.914-17.165-8.914h-9.894l10.419-11.735h54.84c12.549 0 22.759-10.21 22.759-22.76 0-12.549-10.21-22.759-22.759-22.759h-23.3c.304-1.599.47-3.247.47-4.933 0-14.523-11.815-26.339-26.339-26.339-11.917 0-22.006 7.959-25.244 18.839h-3.015c-8.243 0-16.227 3.427-21.904 9.399l-27.272 28.688c-10.731 11.289-16.642 26.083-16.642 41.658v22.285l-40.14 93.663c-1.493 3.482-1.139 7.45.947 10.614 1.222 1.854 2.94 3.253 4.909 4.108-.006.17-.026.337-.026.508v127.941h-17.254c-4.143 0-7.5 3.357-7.5 7.5s3.357 7.5 7.5 7.5h497.512c4.143 0 7.5-3.357 7.5-7.5s-3.358-7.5-7.5-7.5zm-215.989-241.003v43.187c0 4.143 3.357 7.5 7.5 7.5s7.5-3.357 7.5-7.5v-43.624c0-6.417-4.177-11.867-9.95-13.802v-24.912c.65-.228 1.307-.436 1.953-.677 20.718-7.704 38.291-21.043 51.069-38.464h32.333v319.295h-75.404v-165.855c0-4.143-3.357-7.5-7.5-7.5s-7.5 3.357-7.5 7.5v165.855h-71.204v-182.093c0-7.891-6.313-14.322-14.151-14.542v-44.368zm-135.881-101.698c6.252 0 11.339 5.087 11.339 11.339s-5.087 11.338-11.339 11.338-11.338-5.086-11.338-11.338 5.086-11.339 11.338-11.339zm-79.684 110.363c.4-.934.606-1.938.606-2.954v-23.824c0-11.711 4.444-22.835 12.513-31.323l27.273-28.688c2.859-3.009 6.881-4.734 11.032-4.734h3.015c3.239 10.879 13.327 18.838 25.244 18.838 6.564 0 12.57-2.419 17.187-6.405h31.981c4.278 0 7.759 3.48 7.759 7.759s-3.48 7.76-7.759 7.76h-55.204c-4.054 0-7.922 1.738-10.61 4.769l-15.754 17.744c-3.014 3.396-3.759 8.266-1.897 12.406s5.998 6.816 10.538 6.816h17.562c1.975 0 3.759.927 4.896 2.542 1.136 1.615 1.404 3.608.736 5.467l-17.798 49.511h-10.734l8.441-27.022c1.237-3.961.508-8.321-1.95-11.664s-6.402-5.339-10.552-5.339h-15.129c-5.017 0-9.515 2.793-11.74 7.29l-44.96 90.891h-8.836-4.359zm-8.569 89.837 41.146-83.181h11.36l-9.194 29.433c-.304.972-.454 1.972-.487 2.972-3.205 2.674-5.25 6.694-5.25 11.184v39.592zm-25.134 15h85.355v41.048c0 4.143 3.357 7.5 7.5 7.5s7.5-3.357 7.5-7.5v-41.484c0-8.03-6.533-14.563-14.563-14.563h-8.083v-39.155h85.355v181.655h-62.709v-54.49c0-4.143-3.357-7.5-7.5-7.5s-7.5 3.357-7.5 7.5v54.49h-85.355z"/></svg>